<?xml version="1.0" encoding="utf-8"?>
<svg width="1920" height="1610" viewBox="0 0 1920 1610" fill="none" xmlns="http://www.w3.org/2000/svg">
  <path fill-rule="evenodd" clip-rule="evenodd" d="M 169.354 77.725 C 117.133 94.941 67.514 122.01 -6.5 121.407 C -162.906 120.13 -370 100.407 -370 100.407 L -370 1235.41 L -370 1463.91 L -370 1528.89 C -370 1528.89 -251.625 1467.55 -117 1528.89 C -115.26 1529.69 -113.521 1530.48 -111.783 1531.27 C 21.354 1591.97 150.597 1650.89 405.568 1569.42 C 630.706 1497.47 1147.02 1409.42 1433.69 1528.89 C 1613 1603.62 1694.44 1568.2 1778.65 1531.59 C 1829.07 1509.66 1880.49 1487.3 1954.5 1487.91 C 2110.91 1489.18 2318 1508.91 2318 1508.91 L 2318 1463.91 L 2318 1235.41 L 2318 80.42 C 2318 80.42 2199.63 141.762 2065 80.42 L 2059.78 78.042 C 1926.65 17.344 1797.4 -41.579 1542.43 39.896 C 1317.29 111.838 809.424 177.178 514.305 80.42 C 337.889 22.58 256.281 49.067 169.354 77.725 Z" fill="#011DAA"/>
  <mask id="mask0" mask-type="alpha" maskUnits="userSpaceOnUse" x="-370" y="0" width="2688" height="1610">
    <path fill-rule="evenodd" clip-rule="evenodd" d="M 169.354 77.725 C 128.765 91.444 67.514 122.01 -6.5 121.407 C -162.906 120.13 -370 100.407 -370 100.407 L -370 1235.41 L -370 1463.91 L -370 1528.89 C -370 1528.89 -251.625 1467.55 -117 1528.89 C -115.26 1529.69 -113.521 1530.48 -111.783 1531.27 C 21.354 1591.97 150.597 1650.89 405.568 1569.42 C 630.706 1497.47 1147.02 1409.42 1433.69 1528.89 C 1613 1603.62 1694.44 1568.2 1778.65 1531.59 C 1829.07 1509.66 1880.49 1487.3 1954.5 1487.91 C 2110.91 1489.18 2318 1508.91 2318 1508.91 L 2318 1463.91 L 2318 1235.41 L 2318 80.42 C 2318 80.42 2199.63 141.762 2065 80.42 L 2059.78 78.042 C 1926.65 17.344 1797.4 -41.579 1542.43 39.896 C 1317.29 111.838 809.055 178.296 514.305 80.42 C 353.484 27.017 267.769 44.461 169.354 77.725 Z" fill="#011DAA"/>
  </mask>
  <g mask="url(#mask0)">
    <path opacity="0.15" fill-rule="evenodd" clip-rule="evenodd" d="M 1904.33 785.753 C 1865.22 336.049 1550.62 128.053 1405.66 32.215 C 1391.75 23.016 1379.39 14.849 1369 7.602 C 1416.71 -1.071 1460.82 -8.083 1501.15 -14.494 C 1587.13 -28.162 1655.95 -39.102 1705.88 -57.594 C 1705.88 -57.594 1925.76 41.087 2070.42 266.094 C 2153.35 395.093 2158.8 342.721 2166.53 268.485 C 2172.28 213.236 2179.29 145.876 2220.43 132.161 C 2316.87 100.017 2574.05 523.244 2574.05 523.244 L 2631 1088.27 L 2550.45 1726.41 L 1496.61 1549.01 C 1496.61 1549.01 1947.19 1278.62 1904.33 785.753 Z M -1.466 787.415 C -4.684 612.053 89.507 279.615 482.892 30.286 C 398.574 -12.369 329.222 -78.546 153.643 76.202 C 145.655 83.242 -106.971 99.267 -115.399 106.561 C -192.319 173.129 -284.986 253.325 -346.673 403.52 C -367.892 455.183 -388.369 430.063 -413.693 398.999 C -447.617 357.383 -490.237 305.099 -554.988 412.449 C -632.566 541.065 -573.206 1043.79 -528.674 1420.94 C -514.438 1541.5 -501.717 1649.23 -495.47 1727.81 C -303.027 1764.51 344.662 1760.54 677.044 1689.12 C 188.045 1497.18 149.966 1121 131.697 940.521 C 126.173 885.952 122.46 849.272 108.643 840.982 C 82.402 825.237 60.041 860.934 42.432 889.045 C 17.094 929.494 1.595 954.235 -1.466 787.415 Z M 528.434 1343.88 C 461.72 1386.02 728.574 1607.22 934.559 1577.62 C 1047.34 1561.41 963.901 1535.31 879.942 1509.05 C 857.778 1502.11 835.577 1495.17 816.942 1488.39 C 779.966 1474.95 731.599 1444.35 684.521 1414.56 L 684.519 1414.56 L 684.516 1414.56 C 617.989 1372.47 554.035 1332.01 528.434 1343.88 Z M 357.722 482.951 C 382.473 445.967 415.776 412.297 444.619 383.138 C 483.942 343.382 514.973 312.01 504.729 292.052 C 486.97 257.456 413.693 296.1 357.049 364.883 C 306.57 426.179 278.151 526.722 269.456 619.183 C 259.204 728.192 296.841 727.007 298.135 679.837 C 299.758 620.683 309.481 555.037 357.722 482.951 Z M 1692.68 1112.34 C 1764.35 1022.46 1835.31 789.367 1717.03 574.391 C 1625.39 407.831 1617.79 546.483 1656.58 613.14 C 1663.78 625.518 1666.44 628.956 1665.81 629.738 C 1664.45 631.418 1647.91 620.826 1628.68 660.344 C 1619.47 679.26 1632.46 701.834 1651.06 734.181 C 1689.41 800.857 1751.65 909.057 1692.68 1112.34 Z" fill="url(#paint0_linear)"/>
  </g>
  <defs>
    <linearGradient id="paint0_linear" x1="1463.96" y1="492.356" x2="1537.74" y2="702.276" gradientUnits="userSpaceOnUse" gradientTransform="matrix(1, 0, 0, 1, 0, -1)">
      <stop stop-color="#5397EC" offset="0"/>
      <stop offset="0.4047" stop-color="#1A78EC"/>
      <stop offset="1" stop-color="#0F77F7"/>
    </linearGradient>
  </defs>
</svg>